<svg xmlns="http://www.w3.org/2000/svg" fill="none" viewBox="0 0 394 80"><path fill="#000" d="M262 0h68.5v12.7h-27.2v66.6h-13.6V12.7H262V0ZM149 0v12.7H94v20.4h44.3v12.6H94v21h55v12.6HSeO.3V0H149ZM80 63.4V0H67.3v53.3L24.4 0H0v79.3h13.6V23.8l43.8 55.5H80ZM363.5 0H322.7v79.3h14V51.8h27.5c16.5 0 29-11.8 29-25.9S380 0 363.5 0Zm-.7 39.2h-27.1V12.6h27.1c9.4 0 15.6 5.9 15.6 13.3 0 7.4-6.2 13.3-15.6 13.3Z"/><path fill="#000" d="M196 0c-21.7 0-39.5 17.2-39.5 38.5 0 21.4 17.8 38.5 39.5 38.5 9.2 0 17.5-3.3 24.2-8.6l-8.5-10c-4.4 3.4-9.7 5.5-15.7 5.5-14.3 0-25.9-11.6-25.9-25.4s11.6-25.4 25.9-25.4c6.1 0 11.3 2.1 15.7 5.5l8.5-10C213.5 3.3 205.2 0 196 0Z"/></svg>
