<svg xmlns="http://www.w3.org/2000/svg" fill="none" viewBox="0 0 283 64"><path fill="black" d="M141 16c-11 0-19 7-19 18s9 18 20 18c7 0 13-3 16-7l-7-5c-2 3-6 4-9 4-5 0-9-3-10-7h28v-3c0-11-8-18-19-18Zm-9 15c1-4 4-7 9-7s8 3 9 7h-18ZM261 14h-7v32h7V14ZM269 14h-6l14 18-14 18h6l11-14 11 14h6l-14-18 14-18h-6l-11 14-11-14ZM244 30c0-8-6-14-14-14h-15v32h7V38h8l-1 1 10 13h8l-11-14c5-2 8-7 8-13v5Zm-14 1h-8V22h8c4 0 7 3 7 7s-3 7-7 7v-5ZM174 14h-14v32h14c11 0 19-7 19-16s-8-16-19-16Zm0 25h-7V21h7c7 0 12 5 12 9s-5 9-12 9ZM141.5 16c-11 0-19 7-19 18s9 18 20 18c7 0 13-3 16-7l-7-5c-2 3-6 4-9 4-5 0-9-3-10-7h28v-3c0-11-8-18-19-18Zm-9 15c1-4 4-7 9-7s8 3 9 7h-18ZM61 32c0-11 9-18 20-18 7 0 13 3 16 7l-7 5c-2-3-6-4-9-4-7 0-13 5-13 12s6 12 13 12c3 0 7-2 9-4l7 5c-3 4-9 7-16 7-11 0-20-7-20-18ZM2 14h9v32h-9V14ZM2 0h9v8H2V0ZM38 30c0-8-6-14-14-14H9v32h7V38h8l-1 1 10 13h8L30 38c5-2 8-7 8-13v5Zm-14 1h-8V22h8c4 0 7 3 7 7s-3 7-7 7v-5Z"/></svg>
